<svg width="36px" height="36px" viewBox="0 0 24 24" fill="none" xmlns="http://www.w3.org/2000/svg">
<path d="M22 15C22 18.87 18.87 22 15 22L16.05 20.25M2.00003 9C2.00003 5.13 5.13003 2 9.00003 2L7.95003 3.75M17.5 11C15.0148 11 13 8.98528 13 6.5C13 4.01472 15.0148 2 17.5 2C19.9853 2 22 4.01472 22 6.5C22 8.98528 19.9853 11 17.5 11ZM6 13H7.00001C8.88563 13 9.82843 13 10.4142 13.5858C11 14.1716 11 15.1144 11 17L11 18C11 19.8856 11 20.8284 10.4142 21.4142C9.82845 22 8.88564 22 7.00002 22H6C4.11438 22 3.17157 22 2.58579 21.4142C2 20.8284 2 19.8856 2 18L2 17C2 15.1144 2 14.1716 2.58579 13.5858C3.17157 13 4.11438 13 6 13Z" stroke="#fafafa" stroke-width="null" stroke-linecap="round" stroke-linejoin="round" class="my-path"></path>
</svg>