<svg width="36" height="36" viewBox="0 0 24 24" fill="none" xmlns="http://www.w3.org/2000/svg">
<path d="M7.00126 5.88669C9.44143 4.47785 10.6615 3.77344 12.0013 3.77344C13.341 3.77344 14.5611 4.47785 17.0013 5.88669L17.7955 6.34523C18.7716 6.90877 19.2596 7.19053 19.5275 7.65464C19.7955 8.11874 19.7955 8.68227 19.7955 9.80934V14.1905C19.7955 15.3176 19.7955 15.8811 19.5275 16.3452C19.2596 16.8093 18.7716 17.0911 17.7955 17.6546L14.0013 19.8452C13.0252 20.4088 12.5372 20.6905 12.0013 20.6905C11.4654 20.6905 10.9773 20.4088 10.0013 19.8452L6.20703 17.6546C5.23096 17.0911 4.74293 16.8093 4.47498 16.3452C4.20703 15.8811 4.20703 15.3176 4.20703 14.1905V9.80934C4.20703 8.68227 4.20703 8.11874 4.47498 7.65464C4.74293 7.19053 5.23096 6.90877 6.20703 6.34523L7.00126 5.88669Z" stroke="#f7f3f3" stroke-width="null" class="my-path"></path>
<path d="M12 12L12 16" stroke="#f7f3f3" stroke-width="null" stroke-linecap="round" class="my-path"></path>
<path d="M14 10C14 11.1046 13.1046 12 12 12C10.8954 12 10 11.1046 10 10C10 8.89543 10.8954 8 12 8C13.1046 8 14 8.89543 14 10Z" stroke="#f7f3f3" stroke-width="null" class="my-path"></path>
</svg>